<?xml version="1.0" encoding="utf-8"?>
<!-- Generator: Adobe Illustrator 24.0.1, SVG Export Plug-In . SVG Version: 6.00 Build 0)  -->
<svg version="1.1" id="圖層_1" xmlns="http://www.w3.org/2000/svg" xmlns:xlink="http://www.w3.org/1999/xlink" x="0px" y="0px"
	 viewBox="0 0 5.1 5.1" style="enable-background:new 0 0 5.1 5.1;" xml:space="preserve">
<style type="text/css">
	.st0{fill-rule:evenodd;clip-rule:evenodd;fill:#252A52;}
</style>
<title>Combined Shape</title>
<g id="_x32_021桃園兒童節">
	<g id="_x30_1_x5F_index" transform="translate(-1169.000000, -43.000000)">
		<g id="icon_fb" transform="translate(1169.000000, 43.000000)">
			<path id="Combined-Shape" class="st0" d="M2.5,0C4,0,5.1,1.1,5.1,2.5S4,5.1,2.5,5.1S0,4,0,2.5S1.2,0,2.5,0z M3.1,1.3H2.8l0,0
				c-0.5,0-0.6,0.3-0.6,0.6l0,0v0.3H2v0.4h0.2v1.3h0.5V2.6h0.4l0.1-0.4H2.7V1.9c0-0.1,0.1-0.2,0.2-0.2h0.2V1.3L3.1,1.3z"/>
		</g>
	</g>
</g>
</svg>
