<?xml version="1.0" encoding="UTF-8"?>
<svg width="30px" height="24px" viewBox="0 0 30 24" version="1.1" xmlns="http://www.w3.org/2000/svg" xmlns:xlink="http://www.w3.org/1999/xlink">
    <title></title>
    <g id="2021桃園兒童節" stroke="none" stroke-width="1" fill="none" fill-rule="evenodd">
        <g id="01_index" transform="translate(-1040.000000, -47.000000)" fill="#FFFFFF" fill-rule="nonzero">
            <path d="M1068.44727,49.9101562 C1068.62305,49.9101562 1068.78906,49.8808594 1068.94531,49.8222656 C1069.10156,49.7636719 1069.23828,49.6757812 1069.35547,49.5585938 C1069.47266,49.421875 1069.56055,49.2802734 1069.61914,49.1337891 C1069.67773,48.9873047 1069.70703,48.8164062 1069.70703,48.6210938 C1069.70703,48.4453125 1069.67773,48.2792969 1069.61914,48.1230469 C1069.56055,47.9667969 1069.47266,47.8300781 1069.35547,47.7128906 C1069.23828,47.5957031 1069.10156,47.5078125 1068.94531,47.4492188 C1068.78906,47.390625 1068.62305,47.3613281 1068.44727,47.3613281 L1068.44727,47.3613281 L1041.69922,47.3613281 C1041.52344,47.3613281 1041.35742,47.390625 1041.20117,47.4492188 C1041.04492,47.5078125 1040.9082,47.5957031 1040.79102,47.7128906 C1040.67383,47.8300781 1040.58594,47.9667969 1040.52734,48.1230469 C1040.46875,48.2792969 1040.43945,48.4453125 1040.43945,48.6210938 C1040.43945,48.8164062 1040.46875,48.9873047 1040.52734,49.1337891 C1040.58594,49.2802734 1040.67383,49.421875 1040.79102,49.5585938 C1040.9082,49.6757812 1041.04492,49.7636719 1041.20117,49.8222656 C1041.35742,49.8808594 1041.52344,49.9101562 1041.69922,49.9101562 L1041.69922,49.9101562 L1068.44727,49.9101562 Z M1068.44727,60.0761719 C1068.62305,60.0761719 1068.78906,60.046875 1068.94531,59.9882812 C1069.10156,59.9296875 1069.23828,59.8417969 1069.35547,59.7246094 C1069.47266,59.6074219 1069.56055,59.4707031 1069.61914,59.3144531 C1069.67773,59.1582031 1069.70703,58.9921875 1069.70703,58.8164062 C1069.70703,58.640625 1069.67773,58.4746094 1069.61914,58.3183594 C1069.56055,58.1621094 1069.47266,58.0253906 1069.35547,57.9082031 C1069.23828,57.7910156 1069.10156,57.703125 1068.94531,57.6445312 C1068.78906,57.5859375 1068.62305,57.5566406 1068.44727,57.5566406 L1068.44727,57.5566406 L1041.69922,57.5566406 C1041.52344,57.5566406 1041.35742,57.5859375 1041.20117,57.6445312 C1041.04492,57.703125 1040.9082,57.7910156 1040.79102,57.9082031 C1040.67383,58.0253906 1040.58594,58.1621094 1040.52734,58.3183594 C1040.46875,58.4746094 1040.43945,58.640625 1040.43945,58.8164062 C1040.43945,58.9921875 1040.46875,59.1582031 1040.52734,59.3144531 C1040.58594,59.4707031 1040.67383,59.6074219 1040.79102,59.7246094 C1040.9082,59.8417969 1041.04492,59.9296875 1041.20117,59.9882812 C1041.35742,60.046875 1041.52344,60.0761719 1041.69922,60.0761719 L1041.69922,60.0761719 L1068.44727,60.0761719 Z M1068.44727,70.2714844 C1068.62305,70.2714844 1068.78906,70.2421875 1068.94531,70.1835938 C1069.10156,70.125 1069.23828,70.0371094 1069.35547,69.9199219 C1069.47266,69.7832031 1069.56055,69.6416016 1069.61914,69.4951172 C1069.67773,69.3486328 1069.70703,69.1777344 1069.70703,68.9824219 C1069.70703,68.8066406 1069.67773,68.640625 1069.61914,68.484375 C1069.56055,68.328125 1069.47266,68.1914062 1069.35547,68.0742188 C1069.23828,67.9570312 1069.10156,67.8691406 1068.94531,67.8105469 C1068.78906,67.7519531 1068.62305,67.7226562 1068.44727,67.7226562 L1068.44727,67.7226562 L1041.69922,67.7226562 C1041.52344,67.7226562 1041.35742,67.7519531 1041.20117,67.8105469 C1041.04492,67.8691406 1040.9082,67.9570312 1040.79102,68.0742188 C1040.67383,68.1914062 1040.58594,68.328125 1040.52734,68.484375 C1040.46875,68.640625 1040.43945,68.8066406 1040.43945,68.9824219 C1040.43945,69.1777344 1040.46875,69.3486328 1040.52734,69.4951172 C1040.58594,69.6416016 1040.67383,69.7832031 1040.79102,69.9199219 C1040.9082,70.0371094 1041.04492,70.125 1041.20117,70.1835938 C1041.35742,70.2421875 1041.52344,70.2714844 1041.69922,70.2714844 L1041.69922,70.2714844 L1068.44727,70.2714844 Z" id=""></path>
        </g>
    </g>
</svg>