<?xml version="1.0" encoding="UTF-8"?>
<svg width="343px" height="74px" viewBox="0 0 343 74" version="1.1" xmlns="http://www.w3.org/2000/svg" xmlns:xlink="http://www.w3.org/1999/xlink">
    <title>群組</title>
    <g id="2021桃園兒童節" stroke="none" stroke-width="1" fill="none" fill-rule="evenodd">
        <g id="01_index" transform="translate(-123.000000, -18.000000)">
            <g id="群組" transform="translate(123.000000, 18.000000)">
                <path d="M230.954851,30.0513642 C230.820772,29.9557722 230.450973,30.0013622 230.327707,30.1241613 C229.552789,30.8977217 228.612074,30.9580183 227.614411,30.9094869 C226.85463,30.8719854 226.089804,30.92787 225.330023,30.8947804 C224.619981,30.8638968 224.366961,31.2425885 224.29848,32.0051191 L229.715702,32.0051191 C229.538372,32.3632217 229.46917,32.5963193 229.330045,32.770591 C227.873198,34.5890464 226.419234,36.410443 224.920578,38.1928675 C224.731714,38.4178765 224.287667,38.5178805 223.964004,38.5134686 C221.610414,38.4796437 219.256824,38.4208178 216.904676,38.330373 C216.312854,38.307578 216.055509,38.4193471 216.055509,39.1024628 C216.052626,45.4593356 216.006491,51.8154731 216,58.1723459 C215.99712,60.9908413 217.974424,62.9835684 220.727367,62.9953335 C223.22657,63.0048928 225.725772,62.9968042 228.224975,62.9968042 C231.509188,62.9968042 234.793401,62.9945982 238.077614,62.9975395 C239.118528,62.9990102 239.992204,62.6394369 240.617905,61.7710197 C241.189543,60.9783408 241.123945,60.0665395 240.392999,59.4312199 C239.813432,58.9282585 239.661332,58.3083807 239.749276,57.6090879 C239.824245,57.0105345 239.953278,56.414187 240.119074,55.834752 C240.325239,55.1156055 240.593396,54.4148421 240.834162,53.7059901 C240.571771,53.8574668 240.4276,54.0751226 240.256036,54.2685127 C239.318205,55.328114 238.438762,56.4546298 237.416591,57.4237864 C235.770159,58.9841431 233.798622,59.7709394 231.504863,59.7253494 C228.726689,59.6709354 225.946354,59.7091722 223.166739,59.6871125 C221.23629,59.6724061 219.679965,58.0679299 219.679245,56.0979979 C219.676361,51.3669256 219.674199,46.6358534 219.682849,41.9047812 C219.68357,41.1576924 219.463709,40.1120621 219.845041,39.7451357 C220.266741,39.3399723 221.263683,39.5473336 222.010488,39.5076261 C222.422096,39.4863017 222.835866,39.5032142 223.248195,39.5039495 C223.29433,39.6289545 223.295772,39.6326311 223.340465,39.7583715 L225.870664,39.5877764 C225.896615,39.8605815 225.934099,40.0679427 225.934099,40.2745687 C225.938424,42.6283396 225.937703,44.9813752 225.937703,47.3351462 C225.937703,49.1653667 226.201536,49.3484623 227.964746,48.7557914 C228.976826,48.4146013 229.658754,47.4476507 229.658754,46.360107 C229.658754,44.4431183 229.668125,42.5261296 229.650825,40.6098762 C229.6465,40.0333825 229.774091,39.670868 230.685972,39.7841078 C231.570461,39.893671 232.465762,39.7921964 233.330787,39.5723346 C234.463971,39.2848231 234.540381,39.8061675 234.367376,40.956949 C234.001903,43.3967528 234.019924,45.8799407 234.365213,48.3234211 C234.529568,49.4896444 234.465412,49.8830426 233.692656,49.8683361 C232.145702,49.8381878 230.598749,49.8580416 229.051795,49.8580416 C226.600169,49.8580416 224.149263,49.8661301 221.697637,49.852159 C221.199527,49.8492177 220.849191,49.9903998 221.036614,50.5389512 C221.097886,50.7191055 221.510215,50.8713175 221.763235,50.8727882 C225.618365,50.8948479 229.474216,50.8889653 233.329346,50.8897006 C234.385397,50.8904359 234.40486,50.8904359 234.427207,51.9272423 C234.43802,52.4257917 234.596608,52.6485947 235.108414,52.5662385 C235.717536,52.4669698 236.341076,52.4375569 236.942268,52.3029926 C237.846941,52.1000433 238.069685,51.7816482 238.071126,50.8411692 C238.07401,48.1726798 238.043734,45.503455 238.09059,42.8349656 C238.104286,42.0489046 238.291708,41.2562257 238.476247,40.4856066 C238.600955,39.9642621 239.135829,39.3583554 238.989495,39.0024588 C238.805677,38.555382 238.096356,38.3494914 237.645822,37.9965361 C237.172221,37.625933 236.776472,37.69873 236.284849,37.9950654 C235.851615,38.25537 235.331879,38.4965561 234.844582,38.5083213 C232.632279,38.5619999 230.418535,38.532587 228.204791,38.5259691 C228.039715,38.5252338 227.874639,38.4752317 227.587739,38.428171 L230.954851,30.0513642 Z" id="Fill-1" fill="#FEFEFE"></path>
                <path d="M265.571824,57.7512652 C267.199682,57.7512652 268.681707,57.7310474 270.162991,57.7620962 C270.727078,57.7736492 270.94916,57.5851903 270.964705,57.037143 C271.034291,54.5907868 271.123864,52.1444307 271.216398,49.6987967 C271.232684,49.2460619 270.993576,49.124755 270.586426,49.1290874 C269.879467,49.136308 269.168806,49.1745775 268.466288,49.1153682 C267.728236,49.0532706 267.435089,49.33632 267.311463,50.0352789 C267.08494,51.3212766 266.768844,52.5935551 266.478657,53.8687219 C266.195133,55.1157281 265.897544,56.359846 265.571824,57.7512652 L265.571824,57.7512652 Z M255.837988,57.4299463 C255.944587,56.893452 256.03342,56.4970384 256.102265,56.0970144 C256.44353,54.1005047 256.794419,52.1047171 257.112736,50.1045972 C257.25931,49.1839643 257.190465,49.135586 256.229592,49.1276433 C255.826884,49.1240329 255.424176,49.1269212 255,49.1269212 C255.017767,48.457567 255.349408,48.3369821 255.820962,48.3203746 C257.360727,48.2676639 257.377754,48.2618874 257.571705,46.735442 C257.679044,45.8913481 257.717538,45.0385893 257.797488,44.0609134 C259.122575,44.5093157 260.407687,44.9439988 261.484783,45.3086416 C261.277506,46.2415496 261.09762,47.0221018 260.931059,47.8055423 C260.849629,48.1904029 261.067269,48.3182084 261.427041,48.3160422 C261.94079,48.3124319 262.454539,48.324707 262.967547,48.3232629 C264.051305,48.3189305 264.123112,48.2503343 264.170489,47.2055063 C264.183814,46.9311216 264.2001,46.6567369 264.220087,46.2776528 C265.64289,46.5975276 266.962055,46.8950184 268.276778,47.191065 C268.262713,47.302263 268.271596,47.3564179 268.248648,47.3917991 C268.089489,47.6365791 267.923668,47.8777488 267.760068,48.1196406 C268.051735,48.1846264 268.341922,48.291492 268.63581,48.3052113 C269.270223,48.3362601 269.906857,48.3073775 270.54201,48.3254291 C271.021706,48.3391483 271.25045,48.1831823 271.251191,47.6705161 C271.252671,46.5513154 271.283022,45.4306706 271.348907,44.312914 C271.383699,43.7309297 271.146812,43.579296 270.586426,43.5829063 C267.604611,43.60168 264.622055,43.5915711 261.639499,43.5908491 C261.468497,43.5908491 261.291572,43.6190096 261.127231,43.5865167 C260.77116,43.5157543 260.146371,43.8334629 260.152293,43.1958795 C260.157475,42.6211158 260.753394,42.8471221 261.093179,42.8442339 C263.855874,42.8254602 266.62079,42.7669729 269.379783,42.8644517 C270.573842,42.9063315 271.354829,42.5611844 271.9848,41.5972277 C272.497809,40.811621 272.591823,40.8491684 273.34468,41.4297086 C274.336644,42.1950975 275.333791,42.9547098 276.456043,43.8139671 C276.073322,44.0341969 275.860864,44.2392634 275.620276,44.278977 C274.917758,44.3959515 274.852614,44.8277464 274.84225,45.4111748 C274.783028,49.0092246 274.690494,52.6058302 274.610545,56.2024359 C274.605363,56.4566027 274.609805,56.7107696 274.768963,57.0270341 C275.284192,56.3641784 275.798681,55.7013228 276.347223,54.9944212 C277.542762,55.9107216 278.675378,56.7728672 279.799111,57.6451217 C280.141857,57.9108416 280.007128,58.1902807 279.68659,58.3022008 C279.280921,58.4430035 278.836758,58.5325395 278.40666,58.5462588 C277.331785,58.5801958 276.255429,58.5787517 275.179814,58.5513132 C274.657182,58.538316 274.463231,58.7101675 274.408451,59.2329425 C274.211538,61.127641 273.97021,63.0180071 273.719998,64.9076512 C273.657815,65.3769934 273.520865,65.8405591 273.381693,66.29546 C272.449691,69.3411301 270.408021,69.8537962 268.050255,69.9996533 C267.875551,70.0104843 267.535025,69.7649822 267.521701,69.617681 C267.372906,67.961986 266.261758,67.11717 264.854501,66.5019706 C264.616133,66.3979933 264.376285,66.2976262 264.160125,66.0976142 C264.776032,66.0976142 265.391938,66.0882274 266.007844,66.0997804 C266.716285,66.1134997 267.424725,66.1416602 268.132425,66.1698207 C269.002244,66.2044799 269.691438,65.8347826 269.849116,65.0217374 C270.234797,63.038947 270.510919,61.0352167 270.7863,59.0343747 C270.804066,58.9022368 270.436892,58.5794737 270.252564,58.5816399 C267.621637,58.6134108 264.970723,58.3166421 262.372369,58.9766095 C262.091065,59.0480939 261.793476,59.0639793 261.502549,59.0906957 C261.412976,59.0986385 261.318221,59.0553146 261.117608,59.0127127 C261.409275,58.081971 261.718708,57.1902207 261.96818,56.2825851 C262.549294,54.1669347 263.092653,52.0411754 263.672286,49.9255251 C263.841809,49.3059933 263.621207,49.0879297 262.996418,49.1240329 C262.557437,49.1493052 262.110312,49.1731334 261.677253,49.1182564 C260.891825,49.0186115 260.683068,49.4106927 260.583872,50.0814911 C260.087889,53.4528124 259.558595,56.8190793 259.033742,60.1867904 C258.880506,61.1709649 258.64658,61.394083 257.6139,61.4569027 C256.981708,61.4958942 256.344334,61.4590689 255.709921,61.4417393 C255.231705,61.4287421 255.08217,61.2056241 255.196912,60.7362818 C255.350149,60.1138618 255.440462,59.4762784 255.550762,58.8444716 L255.837988,57.4299463 Z" id="Fill-3" fill="#FEFEFE"></path>
                <path d="M282.461105,27.209825 C282.544233,26.5401585 282.901459,26.4649151 283.336571,26.4679248 C284.746002,26.4762016 286.156182,26.4453518 287.564864,26.4837259 C288.199932,26.5010319 288.456056,26.3159331 288.4261,25.6447617 C288.37892,24.6041452 288.421607,23.559014 288.411122,22.5168926 C288.406629,22.1256268 288.524206,21.9006489 288.95782,21.9239744 C290.759675,22.0180287 292.56228,22.1023013 294.364884,22.1986129 C294.445765,22.2031275 294.522902,22.2836379 294.833696,22.4597076 C294.270522,22.6071847 293.91779,22.7418704 293.554573,22.7847592 C293.091752,22.8396869 292.914263,23.0556355 292.927743,23.5153728 C292.95021,24.2843606 292.949461,25.0548533 292.933734,25.8238411 C292.923999,26.3069039 293.135938,26.4799638 293.604001,26.4762016 C295.384138,26.4634102 297.165024,26.4573907 298.945161,26.4814686 C299.444678,26.488993 299.68882,26.2926076 299.724767,25.8155643 C299.846089,24.2128794 299.963666,22.609442 300.075252,21.0052522 C300.094724,20.7193271 300.077499,20.42964 300.077499,20 C302.457506,20.5387429 304.729671,21.0519031 307.001836,21.5665681 C307.03329,21.6628797 307.063995,21.7606961 307.095449,21.8577602 C306.784655,22.0737088 306.46787,22.2828855 306.163816,22.5078634 C305.919674,22.6892 305.586413,22.8411917 305.469585,23.0902475 C303.849713,26.5446731 301.838914,29.7477857 299.444678,32.7116242 C299.357057,32.8207272 299.30014,32.9546605 299.193796,33.1367496 C299.357805,33.1841529 299.467145,33.2435952 299.575736,33.2443477 C301.454728,33.2511196 303.335218,33.2729402 305.212712,33.2308038 C305.499541,33.2247844 305.842538,32.9772335 306.049234,32.7432264 C306.571967,32.1503083 307.016814,31.4874137 307.531309,30.8847139 C307.652631,30.7425038 308.009108,30.6033034 308.110958,30.6740323 C309.359376,31.5476084 310.580833,32.4603112 312,33.5016802 C311.505725,33.7311726 311.225637,33.9245482 310.918587,33.9877527 C310.511185,34.0720253 310.083563,34.0757875 309.664178,34.0757875 C306.622892,34.0833118 303.580857,34.0810545 300.539571,34.0825594 C299.594458,34.0833118 299.543533,34.1246957 299.509083,35.0893164 C299.383268,38.6114612 299.366043,42.1418827 299.110668,45.6549982 C298.933928,48.0951424 298.51005,50.5262575 298.057714,52.9347995 C297.4878,55.9671096 295.383389,57.3741616 292.502367,57.7932675 C291.648621,57.9174191 290.778398,57.9309629 289.916413,57.9964247 C289.530729,58.0257697 289.318041,57.8767877 289.283592,57.4637013 C289.18923,56.3568705 288.475528,55.7955545 287.487728,55.5525183 C286.530632,55.3170064 285.555564,55.1529757 284.588733,54.961105 C284.395516,54.9227308 284.191815,54.9197211 284.007586,54.8565166 C283.913224,54.8234095 283.771682,54.6548642 283.790404,54.6149852 C283.843576,54.5043774 283.961903,54.3644246 284.068247,54.3516332 C284.360318,54.3147639 284.659878,54.3328224 284.956443,54.3358321 C286.810721,54.3538905 288.665749,54.3569003 290.519278,54.3982841 C291.725008,54.4253718 292.504614,53.8648083 292.876069,52.7497007 C293.157656,51.904717 293.472194,51.0491993 293.586027,50.1741183 C293.873605,47.9619616 294.084046,45.7385184 294.269773,43.5150752 C294.355897,42.4789732 294.297483,42.4706964 293.287964,42.4706964 C289.479804,42.4691916 285.671643,42.4722013 281.863483,42.4676867 C281.582645,42.4669343 281.301058,42.4210358 281,42.3939481 C281.085375,41.6317322 281.575156,41.6588199 282.04921,41.6588199 C285.38781,41.6588199 288.725661,41.6588199 292.064261,41.6588199 C292.311398,41.6588199 292.558535,41.6610772 292.805672,41.6580674 C294.605281,41.6377517 294.330434,41.863482 294.41506,40.0576398 C294.498188,38.2969436 294.539378,36.5347426 294.642726,34.7763038 C294.678673,34.161565 294.391844,34.0757875 293.893825,34.0772924 C290.679543,34.087074 287.464512,34.081807 284.25023,34.0772924 C283.961154,34.0772924 283.672827,34.0517096 283.343311,34.0359085 C283.40472,33.326363 283.827849,33.2533769 284.330362,33.2541293 C287.173938,33.2578915 290.018264,33.2548817 292.86184,33.2541293 C294.172416,33.2533769 295.483742,33.274445 296.79282,33.2353184 C297.060927,33.2277941 297.485553,33.0584964 297.561941,32.8575965 C298.240445,31.0818516 298.856791,29.2812765 299.534546,27.3655789 C299.131637,27.312156 298.902474,27.2564759 298.672561,27.2557235 C297.015993,27.2481991 295.358675,27.2692673 293.702107,27.2429321 C293.123206,27.2339029 292.880562,27.4378126 292.930739,28.0217015 C292.958448,28.3414861 292.933734,28.6665377 292.933734,28.989332 C292.932237,30.1616245 292.662632,30.6153424 291.542277,30.9599573 C290.769411,31.1977265 289.953109,31.3015624 289.151785,31.4370006 C288.625308,31.5250354 288.386409,31.295543 288.405131,30.7304648 C288.437334,29.812495 288.390153,28.892268 288.421607,27.9750506 C288.441078,27.4129822 288.208919,27.237665 287.677948,27.2451894 C286.243803,27.2662575 284.809658,27.254971 283.374764,27.2512089 C283.087935,27.2504564 282.801106,27.2256261 282.461105,27.209825" id="Fill-5" fill="#FEFEFE"></path>
                <path d="M327.934102,34.2867376 C328.692744,34.3753525 329.32806,34.448838 329.963376,34.523044 C329.975335,34.5929273 329.988041,34.6628106 330,34.7326938 C329.78474,34.844363 329.570227,35.0489698 329.354967,35.0504107 C328.57764,35.0554538 328.523077,35.4898829 328.526067,36.0849715 C328.544005,39.7225047 328.535036,43.3600378 328.534289,46.997571 L328.534289,48.1380375 C328.534289,49.9571643 326.777079,51.3404211 324.929431,50.9261645 C324.753785,50.88654 324.561695,50.470122 324.558705,50.2266112 C324.530303,47.9204627 324.542262,45.6150347 324.54002,43.3081657 C324.539272,42.2325394 324.53703,42.2303781 323.388229,42.2303781 C320.870883,42.2296577 318.353537,42.2303781 315.83619,42.2303781 L315.0043,42.2303781 C314.95198,41.5315452 315.38549,41.5012865 315.846655,41.5012865 C318.363253,41.5012865 320.880599,41.5012865 323.397946,41.500566 C324.540767,41.4998456 324.54002,41.4991252 324.54002,40.4141331 C324.54002,39.4055083 324.54002,38.3983244 324.54002,37.1735658 L324.54002,34 L327.934102,34.2867376 Z" id="Fill-7" fill="#FEFEFE"></path>
                <path d="M326.970199,26 C326.970199,26 330.226397,29.6183842 330.86832,30.3020589 C331.510972,30.9857335 329.592479,30.5209802 329.592479,30.5209802 C329.592479,30.5209802 326.711828,38.2399575 316,39 C316,39 325.162332,32.8091082 326.970199,26" id="Fill-9" fill="#5CB431"></path>
                <path d="M157.79681,55.0845732 L156.739549,50.7666061 C156.896628,50.7054113 157.054462,50.6442165 157.21154,50.5830216 C157.716005,51.3681065 158.221224,52.1524452 158.725689,52.9375301 C159.405356,53.9942604 160.124294,54.1263517 161.160409,53.269624 C162.652657,52.0352795 164.26347,50.9397427 165.808581,49.7956979 C167.471501,51.4218386 167.323484,52.1487138 165.311668,52.8688725 C163.807337,53.4069392 162.317355,53.9808274 160.820575,54.5390436 C160.77753,54.7218818 160.735239,54.9039738 160.691439,55.086812 C162.876948,56.3099624 165.061701,57.5323664 167.538712,58.9182055 C167.636131,58.0689406 167.73053,57.6286364 167.731285,57.1875858 C167.741858,49.2703179 167.722223,41.3530499 167.763003,33.4365282 C167.769044,32.2768115 167.406555,31.8924781 166.21185,31.8999409 C158.815556,31.9447176 151.418507,31.9559118 144.022212,31.8909856 C142.630404,31.8782988 142.375906,32.393231 142.379682,33.6186202 C142.419707,44.4105527 142.404603,55.2024852 142.406114,65.9944177 C142.406869,68.3026569 141.450803,69.198191 139.081784,68.9638596 C138.714763,68.9272919 138.319046,68.4541514 138.083428,68.0899675 C137.92937,67.8533973 138.035851,67.4481681 138.035851,67.118313 C138.036606,55.571893 138.037361,44.0262193 138.041137,32.4797993 C138.041892,30.5267886 138.048689,30.6327601 140.015194,30.648432 C148.650749,30.7170896 157.287814,30.7267912 165.924124,30.7372391 C167.42619,30.7394779 168.896537,30.8573899 170.369151,30.0573794 C170.889474,29.7745399 172.11061,30.6044015 172.914128,31.0842586 C173.100659,31.1954541 172.937539,31.9626283 172.853713,32.4133805 C172.631689,33.6051871 172.156676,34.7872922 172.148369,35.9761137 C172.086444,44.7881695 172.115141,53.6009716 172.113631,62.4137737 C172.112876,64.3749935 170.30798,65.713817 168.399625,65.1473916 C168.168538,65.078734 167.827194,64.8063424 167.828704,64.6294744 C167.836256,63.0451253 166.692904,63.3018451 165.720224,63.3010988 C159.230153,63.2973674 152.740082,63.3003525 146.250012,63.3010988 C145.964551,63.3010988 145.650394,63.3749803 145.397406,63.2831881 C144.926925,63.1130366 144.492693,62.8458689 144.043357,62.6190003 C144.503266,62.3995944 144.962419,61.9921264 145.424593,61.9891413 C152.248456,61.942872 159.071564,61.9518274 165.896182,61.9443646 C167.827194,61.9421257 168.070364,61.589136 167.481318,59.6712005 C167.436007,59.6659765 167.36653,59.6398568 167.349161,59.6600063 C165.474788,61.7398843 163.488648,60.833156 161.863488,59.5301538 C160.31158,58.286854 159.13651,56.5845928 157.796054,55.0838269 L157.79681,55.0845732 Z" id="Fill-11" fill="#FEFEFE"></path>
                <path d="M193.727643,41.6184372 C193.282845,41.8533896 192.990589,42.0996378 192.667683,42.1568697 C192.107409,42.2570257 191.959143,42.5401735 191.964845,43.1132464 C191.991219,45.5486183 191.995496,47.9839902 191.961994,50.418609 C191.95344,51.0338529 192.13307,51.2710644 192.704037,51.4148975 C193.799637,51.6897616 194.883833,52.0354127 195.940941,52.4435672 C196.481256,52.6514097 196.994485,53.0038383 197.444273,53.3894012 C197.983163,53.8502693 198.092937,54.5227452 197.93184,55.2245902 C197.769318,55.9347187 197.291017,56.3376018 196.644492,56.4430292 C194.583736,56.7781375 194.098308,56.2638027 193.585079,54.7192919 C193.326326,53.9406356 192.889369,53.2252357 192.508012,52.4962809 C192.443146,52.3712742 192.252111,52.3200666 192.015455,52.16795 C191.999773,52.5324274 191.979102,52.7929836 191.978389,53.0535397 C191.975537,55.4881586 191.95344,57.9235304 191.989794,60.3581492 C191.999773,61.029119 191.756703,61.4365204 191.187161,61.5585149 C190.293288,61.7505433 189.385872,61.8770562 188.479881,61.9922732 C187.888955,62.0668254 187.948119,61.5871309 187.948119,61.1895192 C187.946693,57.6366174 187.945981,54.0829625 187.945268,50.5293077 C187.945268,49.2122188 187.907488,47.8936239 187.960237,46.5795472 C187.989462,45.8626412 187.731422,45.6894391 187.106994,45.7045002 C185.64857,45.7398936 184.18872,45.7150429 182.729583,45.7120307 C182.370323,45.7112777 182.012488,45.7398936 182.00037,45.1675737 C181.986827,44.5621195 182.3468,44.5643787 182.74669,44.5651317 C184.205827,44.5681439 185.665678,44.5365157 187.123389,44.5801928 C187.784171,44.5990191 187.998016,44.3490056 187.95596,43.6742706 C187.911052,42.9573646 187.913904,42.2306689 187.971642,41.516022 C187.986611,41.3224875 188.285994,40.9911444 188.440676,41 C190.061623,41.0928065 191.679005,41.2396518 193.297101,41.3789665 C193.376937,41.3849909 193.45107,41.4618023 193.727643,41.6184372" id="Fill-13" fill="#FEFEFE"></path>
                <path d="M190,67.6992369 C197.729961,62.6199312 204.763803,56.866527 208.735907,48 C208.996859,48.2453988 209.211848,48.4249589 209.40089,48.6299566 C210.062907,49.3414634 210.723442,50.0544666 211.381011,50.7697142 C211.617499,51.0263355 213.438232,52.6513542 212.901501,52.9715697 C212.495246,53.2139758 212.278775,53.0725722 211.865107,53.1399072 C211.541141,53.1922789 211.316514,53.4354332 211.115611,53.6785875 C206.737252,58.9875804 201.565658,63.300015 195.311707,66.181206 C193.660741,66.9420919 191.87411,67.4022146 190.150492,68 C190.100081,67.8997456 190.04967,67.7994912 190,67.6992369" id="Fill-15" fill="#F29700"></path>
                <path d="M287,71.6992369 C294.729961,66.6199312 301.763803,60.8672752 305.735907,52 C305.996859,52.2453988 306.211848,52.425707 306.401631,52.6299566 C307.062166,53.3422116 307.723442,54.0544666 308.381011,54.7704624 C308.617499,55.0263355 310.438232,56.6513542 309.901501,56.9715697 C309.495246,57.2139758 309.278775,57.0725722 308.865107,57.1399072 C308.541141,57.1930271 308.316514,57.4361814 308.116352,57.6793356 C303.737252,62.9883286 298.565658,67.300015 292.311707,70.181206 C290.660741,70.9420919 288.874851,71.4022146 287.150492,72 C287.100081,71.9004938 287.050411,71.7994912 287,71.6992369" id="Fill-17" fill="#C50080"></path>
                <path d="M233,73.6992369 C240.729961,68.6199312 247.763803,62.866527 251.735907,54 C251.996859,54.2453988 252.211848,54.4249589 252.40089,54.6292084 C253.062166,55.3414634 253.723442,56.0544666 254.381011,56.7697142 C254.617499,57.0263355 256.438232,58.6513542 255.901501,58.9715697 C255.495246,59.2132276 255.278775,59.0725722 254.865107,59.1399072 C254.541141,59.1922789 254.316514,59.4354332 254.116352,59.6785875 C249.737252,64.9875804 244.565658,69.300015 238.311707,72.181206 C236.660741,72.9420919 234.874851,73.4022146 233.150492,74 C233.100081,73.8997456 233.04967,73.7994912 233,73.6992369" id="Fill-19" fill="#00A0E8"></path>
                <path d="M255.47776,16 C255.667613,16.1454637 255.813142,16.2309877 255.924689,16.3479434 C256.87986,17.3442604 257.835031,18.3413084 258.772473,19.3544377 C258.900272,19.4918608 258.926128,19.7213865 259,19.9085157 C258.804977,19.9779582 258.580404,20.1446202 258.42084,20.0971069 C257.928849,19.9509122 257.708709,20.2425706 257.454588,20.5466557 C254.347512,24.2651182 250.694518,27.3622533 246.406221,29.6516625 C244.665047,30.5814609 242.729588,31.1545442 240.879821,31.8840558 C240.723212,31.9454576 240.549611,31.9695797 240.382659,31.9973567 C240.315435,32.0083213 240.242302,31.9834682 240,31.9542293 C246.443896,27.7599029 252.217768,23.0889818 255.47776,16" id="Fill-21" fill="#5CB431"></path>
                <path d="M126.487326,38.3304645 C127.820754,36.7232104 129.154917,35.1159564 130.489081,33.5087024 C130.674525,33.5841358 130.859233,33.6588223 131.04394,33.7335088 C131.284576,34.74103 131.597328,35.7410826 131.714334,36.7635412 C131.744505,37.0271846 131.209515,37.490241 130.844515,37.6448422 C129.516238,38.205738 128.140865,38.6508697 126.800814,39.1848783 C125.641791,39.646441 125.554956,40.3604442 126.579312,41.0998408 C128.093032,42.1932516 129.644283,43.232888 131.171249,44.308374 C131.685634,44.6706036 132.174999,45.0694297 132.94253,45.6557189 C131.7526,46.2128804 130.871743,46.7267236 129.924656,47.007545 C129.636188,47.0926876 129.037175,46.6221625 128.797276,46.2584391 C127.900965,44.9028787 127.095905,43.4853284 126.050944,41.7518542 C125.983243,42.539797 125.920692,42.9326482 125.919956,43.3247524 C125.912598,48.1816172 125.905239,53.0392288 125.917013,57.8960935 C125.922164,60.0313813 126.560178,61.1016392 128.05035,61.6005452 C129.512559,62.0904888 130.996108,61.5228712 132.18383,60.0067347 C132.696008,59.3539745 133.192732,58.6885176 134,58.1843835 C133.804254,58.7744071 133.623962,59.3704055 133.408347,59.9529604 C133.03378,60.9679503 132.563548,61.9515719 132.264042,62.987474 C131.266178,66.435004 131.211723,65.7859781 127.936288,65.9704538 C122.280257,66.2886184 122.021225,64.0196418 122.050661,60.0127097 C122.119098,50.6298415 122.027848,41.2454795 122.00062,31.8618645 C121.994733,29.9439145 121.993997,29.9207617 123.830036,30.041007 C124.898545,30.1112123 125.961166,30.2702946 127.200401,30.6108652 C125.449724,31.2808033 125.926579,32.629642 125.911862,33.7902706 C125.8942,35.1816805 125.907446,36.5723436 125.907446,37.9637536 C126.100985,38.0854927 126.293787,38.2079786 126.487326,38.3304645" id="Fill-23" fill="#FEFEFE"></path>
                <path d="M251,47.8965471 C251.654178,46.6172821 252.335955,45.3519137 252.957312,44.0556639 C254.318629,41.2145684 255.403207,38.2692479 255.88433,35.1208817 C256.011137,34.2940303 256.046196,33.449422 256.082746,32.61099 C256.102886,32.1616646 256.245358,31.9470384 256.704849,32.0111174 C258.680064,32.2875066 260.657516,32.5507712 262.632731,32.8317926 C263.07432,32.8943275 263.087746,33.1514158 262.831893,33.4687229 C262.769981,33.5459266 262.694643,33.6470635 262.611099,33.6648203 C261.419854,33.9234526 261.122229,35.0297814 260.60381,35.9214839 C258.063928,40.2912123 255.011595,44.2347764 251.429654,47.7390516 C251.327462,47.8386443 251.202892,47.9135319 251.088765,48 C251.058928,47.9652583 251.029837,47.9312887 251,47.8965471" id="Fill-25" fill="#FEFEFE"></path>
                <path d="M110.273023,30.8125452 C108.199635,32.0059242 108.967764,33.9471735 108.92002,35.6284211 C108.837168,38.5300703 108.929147,41.4368319 108.879296,44.3406722 C108.861041,45.3573084 109.17068,45.9043346 110.11364,46.3096745 C111.15911,46.7588349 112.160347,47.4044573 113.052051,48.1340691 C114.12982,49.0163224 114.181777,50.3572305 113.737329,51.5513398 C113.537222,52.0859503 112.724157,52.6621902 112.171581,52.6826398 C111.640771,52.702359 110.906344,52.1443776 110.589683,51.6251044 C110.206321,50.9962798 110.190874,50.1330154 109.972512,49.3851451 C109.789256,48.7570509 109.542106,48.1494063 109.323744,47.5322672 C109.206488,47.5541774 109.089233,47.5760877 108.972679,47.597998 C108.947403,48.1245746 108.90036,48.6511513 108.899658,49.177728 C108.894743,55.3096803 108.921424,61.4416327 108.861743,67.5721244 C108.854722,68.2542639 108.540168,69.1825288 108.054996,69.5455088 C107.479952,69.9764106 106.556652,70.0428718 105.806778,69.979332 C105.633352,69.9647252 105.446585,68.7786496 105.445181,68.1308361 C105.419905,59.9247121 105.42833,51.7185882 105.426926,43.5124642 C105.426926,41.2111562 105.425522,41.2118865 103.151324,41.2096955 C102.707579,41.2089652 102.243471,41.2834601 101.827811,41.170257 C101.519576,41.0862677 101.27383,40.753962 101,40.531938 C101.266809,40.3551952 101.523789,40.0491819 101.802534,40.0265413 C102.639472,39.9556981 103.486942,39.9608105 104.327391,40.0017097 C105.191712,40.0433392 105.482394,39.6935053 105.462032,38.781308 C105.406564,36.2930324 105.460628,33.8025658 105.429734,31.3135599 C105.417096,30.3144519 105.738671,29.8631005 106.761674,30.0361915 C107.865421,30.2231591 108.982509,30.3246767 110.094682,30.4627113 C110.154363,30.5795661 110.213342,30.6964208 110.273023,30.8125452" id="Fill-27" fill="#FEFEFE"></path>
                <path d="M91,28 C101.64449,20.541742 111.37845,12.3508753 116.910249,0 C117.136037,0.0876109298 117.348543,0.105737329 117.458485,0.223558924 C119.191,2.08529118 120.920564,3.95079977 122.620613,5.84425323 C122.841235,6.08971489 123.078829,6.5897014 122.974789,6.79891026 C122.850828,7.05116931 122.360883,7.10252745 122.0436,7.26793084 C121.380994,7.61308769 120.55163,7.82003075 120.097841,8.35627006 C114.051747,15.494295 107.109881,21.4669436 98.7195793,25.5136622 C96.6299359,26.5219432 94.3558255,27.1321986 92.1555019,27.8927521 C91.7991115,28.0158606 91.386643,27.9682788 91,28" id="Fill-29" fill="#C50080"></path>
                <path d="M207.48768,39 C208.698557,40.7383679 209.797866,42.3064833 210.880069,43.8857995 C210.975273,44.0246897 211.042957,44.3159112 210.967835,44.4077579 C210.853293,44.5488883 210.552061,44.6930056 210.41818,44.6340146 C209.806048,44.3651948 209.454239,44.7430359 209.055572,45.075327 C206.026893,47.6044731 202.673181,49.5608837 198.932702,50.8310572 C198.747501,50.8937818 198.55858,50.9497859 198.368172,50.995336 C198.304207,51.0110171 198.231316,50.9841351 198,50.9594933 C202.035016,47.6455428 205.422198,43.9470307 207.48768,39" id="Fill-31" fill="#FEFEFE"></path>
                <path d="M116.718488,37.2149487 C116.718488,35.2979552 116.76989,33.3795034 116.699591,31.4654266 C116.656504,30.3060429 117.09115,29.8838523 118.280945,30.02677 C119.485102,30.1704169 120.701354,30.2148964 122,30.4606274 C120.258394,31.340009 120.726299,32.7983532 120.698331,34.0977379 C120.612157,38.05058 120.690772,42.0136305 120.412598,45.9533474 C120.022551,51.4804721 116.012472,56.2696746 110.308409,58 C114.918677,53.5958004 116.481134,48.41722 116.41915,42.6035307 C115.832567,43.5011416 115.235402,44.3907316 114.663181,45.2963633 C113.623811,46.9435632 113.627591,46.9537716 111.786961,46.158974 C111.276724,45.938764 110.791433,45.6660536 110,45.2708423 C111.876913,44.0035412 113.530079,42.888637 115.180976,41.7708161 C115.571024,41.5068558 115.998866,41.2742499 116.327685,40.9504975 C117.039748,40.2490339 116.816,39.2384014 115.868094,38.8606902 C114.898268,38.4749582 113.907276,38.139539 112.920819,37.7960989 C111.017449,37.1347398 111.008378,37.1376565 111.48989,35.2607675 C111.632756,34.7044091 111.830047,34.1604467 112.002394,33.610651 C112.148283,33.5362754 112.294173,33.4618998 112.440819,33.3867951 C113.635906,34.8028474 114.830992,36.2181705 116.026835,37.6334935 C116.257386,37.4942217 116.487937,37.3542206 116.718488,37.2149487" id="Fill-33" fill="#FEFEFE"></path>
                <path d="M192.848857,30.8026221 C187.940846,31.8684147 183.032835,32.9342074 178.124825,34 C178.083467,33.9217168 178.042109,33.8434337 178,33.7643351 C178.164678,33.5824898 178.299278,33.3427476 178.49629,33.2269538 C182.028975,31.1540809 185.567676,29.0909934 189.116152,27.049923 C189.276318,26.9577772 189.61921,26.9985497 189.750802,27.1282062 C190.850912,28.2094923 191.920944,29.3258428 193,30.4315925 C192.949619,30.5555409 192.899238,30.6786737 192.848857,30.8026221" id="Fill-35" fill="#FEFEFE"></path>
                <path d="M182.463776,46 C183.605574,46.2603901 184.624257,46.4641417 185.622539,46.7488055 C185.78505,46.7951462 185.932787,47.1872025 185.956003,47.4328813 C186.177609,49.7705081 185.562037,51.8359756 184.109991,53.646202 C182.605181,55.5226292 180.828113,56.9944955 178.631049,57.8845296 C178.523412,57.9286635 178.411554,57.9624995 178.299696,57.9941288 C178.257485,58.0058979 178.21035,57.9963355 178,57.9963355 C181.882676,54.9510949 182.621362,50.7032049 182.463776,46" id="Fill-37" fill="#FEFEFE"></path>
                <path d="M200,40 C203.609874,36.8853779 206.771959,33.4792097 208.66875,29 C208.867768,29.1862867 209.01397,29.2847308 209.108886,29.4172518 C210.011354,30.6833953 210.911526,31.950296 211.792562,33.2308275 C211.917331,33.4133278 211.933406,33.6692827 212,33.8911607 C211.769599,33.9441691 211.536136,33.9873331 211.309562,34.0524577 C210.998788,34.1410574 210.625247,34.1660471 210.394081,34.3561201 C207.52593,36.7074212 204.373031,38.556657 200.844294,39.7599477 C200.567966,39.8538483 200.281687,39.9204874 200,40" id="Fill-39" fill="#FEFEFE"></path>
                <path d="M319.370866,43 C320.508328,43.2231694 321.523329,43.3852762 322.508501,43.6433386 C322.713386,43.6971319 322.91042,44.0925852 322.94182,44.3477399 C323.379064,47.9082739 321.29882,50.2977135 318.482249,52.2742532 C317.451547,52.9968279 316.244221,53.5042294 315,54 C318.768773,51.1438673 319.501961,47.2889241 319.370866,43" id="Fill-41" fill="#FEFEFE"></path>
                <path d="M243,46 C243.853559,46.1942256 244.647517,46.3441412 245.424447,46.5583064 C246.988241,46.9895907 248.531458,47.4851245 249.870332,48.4821002 C250.458528,48.920031 250.916881,49.4517514 250.9779,50.2559784 C251.042467,51.109685 251.009829,51.9316361 250.257732,52.489204 C249.437521,53.0984669 248.478953,53.1538545 247.658742,52.7026306 C247.177684,52.437509 246.859107,51.7344565 246.610773,51.1613801 C246.315611,50.4797441 246.204925,49.7153961 245.95872,49.0079126 C245.591895,47.9525954 244.873856,47.2524969 243.812406,46.9977142 C243.345539,46.8854621 243.065276,46.6572655 243,46" id="Fill-43" fill="#FEFEFE"></path>
                <path d="M157.637314,54.6006664 C157.043146,55.8233603 156.504591,57.0768906 155.82042,58.249386 C155.614071,58.6036445 155.015513,58.9069874 154.578669,58.9328038 C153.197888,59.0131215 151.801009,59.0353523 150.424619,58.9213298 C148.87188,58.7922478 148.276981,58.062217 148.189905,56.5153836 C148.156977,55.9352315 148.123317,55.3550793 148.072828,54.4909466 C146.689852,54.9298256 145.469321,55.3170718 144.249521,55.704318 C144.166103,55.5702161 144.083418,55.435397 144,55.3012951 C146.661314,53.2388506 149.322628,51.1764061 152.173461,48.9669515 C151.22294,48.7510976 150.568038,48.6026532 149.913137,48.4542089 C149.912405,48.3057645 149.911674,48.156603 149.911674,48.0081586 C150.392422,47.9142156 150.872439,47.7435404 151.355383,47.7385205 C153.851326,47.7112699 156.351658,47.6452946 158.842479,47.7550144 C160.294969,47.8188383 160.770596,47.2888847 160.602297,45.9593395 C160.545954,45.5132892 160.526197,45.0399883 160.6162,44.6054121 C160.750839,43.9578504 160.800597,43.0284595 161.235247,42.7588215 C162.286747,42.1076742 163.564354,41.4536584 164.686101,42.7294194 C164.919524,42.9940377 165.039528,43.4809639 164.988307,43.8345053 C164.811959,45.0701075 164.480484,46.2849131 164.32243,47.5219495 C164.228768,48.2570002 164.323893,49.0644802 163.391665,49.2674259 C162.459437,49.4696544 161.481109,50.1035908 160.549613,49.1899766 C160.340337,48.9841624 160.022765,48.7640058 159.751291,48.7597031 C157.68195,48.7238469 155.611144,48.7403408 153.278379,48.7403408 C153.528631,49.4861482 153.653758,50.0440696 153.895961,50.5474896 C154.403053,51.5980742 154.195972,52.1990229 152.973977,52.5296164 C152.138338,52.7562271 150.977809,52.9584557 151.233916,54.2177229 C151.380262,54.9398653 151.694176,55.8835986 152.251757,56.2184949 C153.41814,56.9191236 154.741113,56.7262177 155.88774,55.9036781 C156.47898,55.4798586 157.055586,55.0359598 157.638046,54.6013835 L157.637314,54.6006664 Z" id="Fill-45" fill="#FEFEFE"></path>
                <path d="M214,36 C215.629158,34.4853877 217.217271,33.1999693 218.536226,31.7302293 C219.839394,30.2770576 220.870247,28.6374933 222.079486,27 C222.739358,27.6558257 223.476583,28.3737823 224.194865,29.1055458 C225.273077,30.2045716 225.332276,29.9871136 223.981748,30.7623686 C221.178082,32.3708675 218.308112,33.8910025 215.454718,35.4325382 C215.067161,35.6424024 214.616459,35.7632124 214,36" id="Fill-47" fill="#FEFEFE"></path>
                <path d="M261,37.9218132 C261.051887,37.262089 261.354907,37.0729824 261.876545,37.076564 C264.022592,37.0901739 266.168639,37.0658193 268.314685,37.0908902 C268.834939,37.097337 269.159406,36.9390319 269.409847,36.4533717 C269.824944,35.648236 270.303688,34.8781996 270.808721,34 C271.878286,35.0579942 272.870365,36.0257329 273.844458,37.0128121 C274.148861,37.321543 273.96276,37.6195292 273.661124,37.7420187 C273.308292,37.8859976 272.913951,37.9869977 272.536905,37.9891466 C268.884059,38.0063381 265.231213,37.999175 261.577675,37.9941608 C261.402643,37.9941608 261.227611,37.9518984 261,37.9218132" id="Fill-49" fill="#FEFEFE"></path>
                <path d="M190,39.9940169 C193.352132,38.5880866 195.274593,35.8646998 196.190397,32 C197.128005,32.4198488 198.011829,32.7906347 198.868759,33.2281783 C198.982145,33.2860884 199.025754,33.6930683 198.985052,33.91184 C198.716125,35.3748763 198.037995,36.5371013 196.906323,37.3969065 C194.944613,38.8905064 192.773577,39.7092919 190.422287,39.9924083 C190.282736,40.0084945 190.140278,39.9940169 190,39.9940169" id="Fill-51" fill="#FEFEFE"></path>
                <path d="M244.126418,38 C244.657051,38.1004764 245.209425,38.132251 245.715096,38.3134522 C247.271567,38.8690783 248.843336,39.3998001 250.343441,40.0997001 C251.456241,40.6192578 252.127786,41.5785073 251.979627,43.0143758 C251.870119,44.0887009 251.374915,44.7267692 250.370818,44.924287 C249.096172,45.17419 248.212857,44.8092114 247.830382,43.7735312 C247.520376,42.9327924 247.32471,42.0456798 247.05577,41.1869068 C246.684569,40.0018 245.965517,39.2228928 244.78669,38.9180284 C244.493593,38.8415976 244.260888,38.4980884 244,38.2765249 C244.042676,38.1846362 244.084547,38.0918887 244.126418,38" id="Fill-53" fill="#FEFEFE"></path>
                <path d="M179.106172,33 C179.608279,33.109583 180.136929,33.1378349 180.607332,33.3441592 C182.031074,33.9699811 183.484309,34.552141 184.827684,35.3697332 C185.89973,36.0212386 186.207188,37.3413717 185.869501,38.5844543 C185.612917,39.5287518 185.051826,39.974789 184.092588,39.9987603 C183.076577,40.0235877 182.570784,39.6785724 182.283971,38.6854761 C182.052456,37.8832941 181.880663,37.0588529 181.668318,36.2498219 C181.364547,35.0966317 180.771014,34.2807517 179.729935,33.9323119 C179.461555,33.8424196 179.242574,33.5573325 179,33.3621377 C179.035391,33.2414251 179.070782,33.1207126 179.106172,33" id="Fill-55" fill="#FEFEFE"></path>
                <path d="M158.03618,32.8270574 C155.775635,33.5086579 156.449052,35.1529312 156.312589,36.5604011 C156.246582,37.2420015 155.929898,37.9011162 155.63398,38.8743293 C156.584774,38.8743293 157.523701,38.894707 158.461886,38.8701132 C160.167677,38.8258443 161.869018,39.0661612 163.516961,38.1533787 C164.039082,37.8645768 165.137463,38.5082325 165.971817,38.7253609 C165.980717,38.9438947 165.990359,39.1624284 166,39.3809622 C165.265768,39.586145 164.533019,39.96489 163.797304,39.9705115 C157.241132,40.0154831 150.684961,40.0035375 144.129531,39.9712142 C143.752031,39.9698088 143.376016,39.6444675 143,39.4695 C143.390107,39.271344 143.775764,38.9129767 144.172546,38.9024365 C146.371534,38.8455194 148.574971,38.8300604 150.773958,38.8876802 C151.951696,38.9185982 152.033277,38.3093738 152.020669,37.4584273 C152.008803,36.637696 152.00732,35.9617169 150.79695,36.0087966 C149.160873,36.0727405 147.51738,36.0699298 145.882046,35.9947429 C145.335451,35.9694464 144.805172,35.6363757 144.267477,35.4438411 C144.828163,35.2716843 145.382916,34.9779637 145.951761,34.9519645 C147.493648,34.8809937 149.043693,34.8655347 150.58558,34.9400189 C151.706952,34.9941253 152.051077,34.6020294 152.028086,33.5662777 C151.992487,31.9430849 152.113375,31.9023294 153.758352,32.0611352 C154.642396,32.1468623 155.533858,32.1700508 156.417161,32.2606966 C156.885141,32.3084789 157.34348,32.4391776 157.806269,32.5326341 C157.882658,32.6310095 157.959048,32.7286821 158.03618,32.8270574" id="Fill-57" fill="#FEFEFE"></path>
                <path d="M312.984778,42.526591 C312.604239,42.6766281 312.223699,42.9521349 311.841637,42.9573994 C308.072771,43.0012699 304.304666,43.0065343 300.5358,42.9942506 C300.356946,42.9942506 300.178854,42.7204986 300,42.5748485 C300.192553,42.4098954 300.383584,42.1071889 300.579182,42.1028019 C302.31216,42.0633184 304.04666,42.0440154 305.779638,42.0905181 C306.476787,42.1089437 306.970728,41.8939782 307.357356,41.2043338 C307.738657,40.5260958 308.186933,39.893483 308.646625,39.2819281 C308.772964,39.112588 309.134477,38.9397382 309.2357,39.0204599 C310.507464,40.0400105 311.749546,41.1060639 313,42.1607109 C312.995434,42.2826709 312.990106,42.404631 312.984778,42.526591" id="Fill-59" fill="#FEFEFE"></path>
                <path d="M328.112745,45 C328.670913,45.0745131 329.248136,45.0904285 329.783279,45.235114 C331.406173,45.671341 333.021922,46.1336113 334.61941,46.6407342 C334.990992,46.7586529 335.329228,47.0516412 335.597593,47.3323312 C336.332818,48.1020583 336.016814,49.3043953 335.005284,49.7247068 C333.433998,50.3772387 332.058031,49.848413 331.470486,48.3646626 C331.364886,48.0962709 331.264845,47.8249855 331.162422,47.5551469 C330.781311,46.5539229 330.044498,45.9238173 328.893227,45.681469 C328.578811,45.615637 328.296948,45.4217584 328,45.2872008 C328.038111,45.1917084 328.075428,45.0954925 328.112745,45" id="Fill-61" fill="#FEFEFE"></path>
                <path d="M280.051674,49.9884497 C278.902904,49.9884497 277.75271,50.0109511 276.604653,49.9676791 C276.399541,49.9590246 276.201551,49.673429 276,49.5150532 C276.202975,49.3532157 276.399541,49.0676201 276.610351,49.0511767 C277.358155,48.9923267 278.110944,48.9966539 278.860173,49.0330024 C279.362982,49.0572348 279.694864,48.83222 279.967635,48.3268022 C280.327293,47.6612778 280.753185,47.0485454 281.124238,46.3916754 C281.374931,45.9468385 281.602833,45.865487 281.972462,46.2272415 C282.847749,47.0857593 283.755084,47.8966779 284.636069,48.7448104 C284.788478,48.8919355 284.880351,49.1316627 285,49.3281179 C284.80201,49.5038025 284.618264,49.798918 284.404606,49.8344011 C283.757221,49.9408504 283.098441,49.9694099 282.443222,49.9884497 C281.646989,50.0109511 280.849331,49.9936423 280.051674,49.9936423 L280.051674,49.9884497 Z" id="Fill-63" fill="#FEFEFE"></path>
                <path d="M333.695586,41.9974142 C332.014554,41.9967119 330.333522,42.0107582 328.653263,41.9798563 C328.433192,41.9763447 328.217754,41.7438781 328,41.6174612 C328.213893,41.5078998 328.42547,41.3070374 328.642452,41.3028235 C330.246266,41.2754332 331.850853,41.270517 333.454667,41.295098 C333.991331,41.3028235 334.368926,41.1609556 334.677797,40.7550169 C335.069291,40.2423261 335.525649,39.7710719 335.933359,39.2689159 C336.177367,38.9690269 336.405932,38.9079254 336.754956,39.1467129 C337.711685,39.8012715 338.693896,40.4228213 339.64908,41.0766777 C340.164895,41.4292404 340.113931,41.6876928 339.483834,41.868188 C339.151025,41.963703 338.784241,41.9896887 338.432127,41.992498 C336.853023,42.0044374 335.273919,41.9974142 333.695586,41.9974142" id="Fill-65" fill="#FEFEFE"></path>
                <path d="M186.203272,32 C188.268584,32.3556158 190.32875,32.7345159 192.062137,33.8260589 C192.945555,34.3820613 193.227734,35.3550656 192.810898,36.1488509 C192.472969,36.7930517 191.656451,37.0802256 190.59206,36.9807378 C189.741234,36.9003009 189.397301,36.4268521 189.174302,35.8461541 C188.954734,35.2696896 188.788343,34.679819 188.551621,34.1089992 C188.260007,33.4055291 187.653622,32.9539535 186.796792,32.6978254 C186.50432,32.6096271 186.264168,32.4014789 186,32.2483666 C186.067757,32.1651073 186.135515,32.0825537 186.203272,32" id="Fill-67" fill="#FEFEFE"></path>
                <path d="M311.986355,27.5750571 C311.602873,27.7119493 311.222262,27.9598578 310.836625,27.9682049 C308.729623,28.0116097 306.621185,27.9982544 304.513465,27.9974197 C304.426571,27.9974197 304.340395,27.9323124 304,27.7962549 C304.351167,27.5074457 304.595332,27.1451822 304.776302,27.1844135 C305.919569,27.4314872 306.513465,26.6635553 307.063555,25.7028056 C307.388151,25.1360385 307.785278,24.6251968 308.210413,24 C309.504488,25.100146 310.751885,26.1593913 312,27.2194712 C311.994973,27.3379999 311.990664,27.4565285 311.986355,27.5750571" id="Fill-69" fill="#FEFEFE"></path>
                <path d="M342.98137,61.6740975 C342.56853,61.7814035 342.156435,61.977988 341.742104,61.9805634 C338.028776,62.0071752 334.314703,62.0037415 330.600631,61.9865725 C330.399427,61.985714 330.199713,61.7796866 330,61.6689468 C330.200459,61.5307367 330.400917,61.2740608 330.602866,61.2714854 C332.841445,61.2414397 335.080023,61.2079603 337.317111,61.2714854 C338.123416,61.2946635 338.626426,60.9899145 339.099627,60.2550831 C340.167498,58.593128 339.805331,58.692708 341.296475,59.9039779 C341.874004,60.3726905 342.432903,60.8697318 343,61.353038 C342.994038,61.4603439 342.987332,61.5667915 342.98137,61.6740975" id="Fill-71" fill="#FEFEFE"></path>
                <path d="M160,42.6295743 C159.482688,42.719101 158.966147,42.8808265 158.448064,42.8858804 C155.771302,42.912594 153.093769,42.9306437 150.417778,42.8829925 C149.296807,42.8634988 148.821127,43.2273812 148.872781,44.3053106 C148.934457,45.5774551 148.923664,46.8568195 148.866613,48.129686 C148.814188,49.301474 146.412658,50.4624322 145.39114,49.8133642 C145.166792,49.6711324 145.022623,49.2754824 145.019539,48.9939067 C144.990243,46.632281 145.002578,44.2699332 145.002578,42 L159.962223,42 C159.974558,42.2100988 159.987665,42.4194756 160,42.6295743" id="Fill-73" fill="#FEFEFE"></path>
                <path d="M99.6696373,44 C102.369789,44.0113304 102.953203,44.5748277 102.997057,46.8884902 C103.089464,51.8783873 101.001701,55.9278633 97.3140528,59.2975168 C96.9757508,59.6072137 96.551307,59.8300444 96,60 C99.3266366,55.0803512 99.6304819,49.552639 99.6696373,44" id="Fill-75" fill="#FEFEFE"></path>
                <path d="M200,44.6210695 C199.518735,45.6333106 198.903239,45.9587493 198.205895,45.9767119 C196.694984,46.0158068 195.183255,45.9893913 193.672344,45.9999575 C193.256557,46.0031273 193.011013,45.8298418 193.000373,45.2265123 C192.988914,44.5745783 193.241824,44.3664243 193.700172,44.3865001 C194.050481,44.4023494 194.4057,44.3463486 194.751917,44.3970663 C195.71854,44.53654 196.569757,44.2322337 197.291655,43.387995 C197.719719,42.8871576 198.121592,42.869195 198.581577,43.3457303 C199.016189,43.7947934 199.495817,44.1720064 200,44.6210695" id="Fill-77" fill="#FEFEFE"></path>
                <path d="M164.994402,35.6575 C164.47378,35.7654371 163.961956,35.9502502 163.429339,35.9665572 C161.919456,36.0127605 160.399977,36.004607 158.886896,35.9809229 C158.585399,35.9762638 158.295899,35.8073694 158,35.7141864 C158.279904,35.6093554 158.529418,35.4548268 158.84611,35.4082353 C159.976122,35.2436118 161.11973,35.0285142 162.275334,35.0013359 C163.170227,34.9803697 164.090712,35.211386 165,35.3301945 C164.998401,35.4392963 164.996001,35.5483981 164.994402,35.6575" id="Fill-79" fill="#FEFEFE"></path>
                <path d="M114,40.6137678 C113.22544,41.7381078 110.890715,42.4151189 110.1191,41.7160422 C109.95123,41.5645923 109.969637,40.7080479 110.1191,40.3379485 C110.232486,40.0541053 110.772911,40.1423675 110.978332,39.8655451 C112.21969,38.1965873 113.075976,39.2156145 114,40.6137678" id="Fill-81" fill="#FEFEFE"></path>
                <path d="M231.368711,30 C231.368711,30 235.821739,32.8775547 235.99298,33.2727273 C236.049064,33.4029959 235.761916,33.6751774 235.388027,33.6300564 C235.014885,33.5842077 234.778586,33.4095458 234.778586,33.4095458 C234.778586,33.4095458 227.164695,40.6369095 221,42 C221,42 228.892813,33.6366062 231.368711,30" id="Fill-83" fill="#AF76B0"></path>
                <path d="M335.803285,51.8529876 C335.202436,51.5299602 334.55656,50.9388727 333.989666,51.0051348 C333.436796,51.0691379 332.959956,51.8145857 332.449899,52.2611015 C332.394538,52.3092921 332.328843,52.3499529 332.285292,52.4079321 C331.742019,53.1315437 331.016424,53.2670796 330.156486,53.2520201 C327.646798,53.2060884 325.135634,53.2392195 322.625946,53.2384665 C322.169773,53.2384665 321.738697,53.2572909 321.774128,54.0170454 L330.480531,54.0170454 C329.848681,54.6924663 329.30024,55.241387 328.793873,55.8287096 C328.21886,56.4943418 327.587747,56.9890482 326.766193,57.0703697 L326.766193,57.063593 L326.419266,57.0786525 C326.308544,57.0741346 326.195608,57.0643459 326.078981,57.0447685 C325.917328,57.0176613 325.802916,57.0447685 325.719505,57.1095246 L325.29212,57.129102 L325.29212,61.1838867 C325.062558,61.271985 324.674294,61.3299643 324.41742,61.3337292 C322.565418,61.3638483 320.712678,61.3382471 318.860675,61.3623424 C318.572799,61.3661072 318.287138,61.5302564 318,61.6198607 C318.021406,61.7162419 318.042812,61.812623 318.064957,61.9090041 C318.345451,61.9361113 318.626684,61.9865608 318.907178,61.9865608 C320.856616,61.9888198 322.806791,62.0031263 324.75549,61.9639715 C324.979147,61.9594536 325.15704,61.982043 325.29212,62.0407752 L325.29212,65.6445263 C325.256689,65.9035506 325.219782,66.1618219 325.171065,66.4185873 C324.925263,67.7122029 324.370179,68.112787 323.065141,68.1180578 C321.701052,68.1225757 320.336224,68.0736322 318.972135,68.0570666 C318.723381,68.0540547 318.474626,68.0939626 318.225872,68.1150459 L318.216276,68.314585 C318.558775,68.3740702 318.901273,68.4403323 319.245248,68.4915348 C319.750877,68.5660795 320.261672,68.6074933 320.76361,68.7023685 C321.439749,68.8311277 322.10334,68.9756994 322.408193,69.7580432 C322.464292,69.9026149 322.815649,70.0155615 323.018638,69.998243 C324.108876,69.9063798 325.20871,69.8423767 326.279756,69.629284 C327.731685,69.3408935 328.649935,68.3951536 328.93043,66.8967281 C329.095036,66.0202621 329.257428,65.1294895 329.273667,64.2424819 C329.309098,62.3562729 329.259642,60.4685579 329.221259,58.5815959 C329.210925,58.0545115 329.355601,57.7247073 329.857538,57.4686949 C332.231408,56.254142 334.583872,54.9974223 336.940026,53.7474794 C337.24857,53.5833303 337.53497,53.3747554 338,53.0803412 C337.154087,52.6059653 336.483853,52.2189347 335.803285,51.8529876" id="Fill-85" fill="#FEFEFE"></path>
                <polygon id="Fill-87" fill="#F29700" points="333.246593 50 338 52.9790327 323 61"></polygon>
                <path d="M0,62 L0.0237685623,61.9064022 L0.408387115,61.2357408 C1.12576554,60.060978 2.05994206,58.8655793 3.21091668,57.649545 C4.36045079,56.4327736 6.04009585,54.9049923 8.24913163,53.064727 L8.59917773,52.7684568 C12.3949451,49.5772879 14.5924567,46.8120995 15.1924328,44.4728916 C15.5230319,43.1838952 15.5446397,42.1572674 15.2586967,41.3930082 C14.9713132,40.628749 14.426797,40.246988 13.624428,40.246988 C12.9236155,40.246988 12.3402054,40.4710331 11.8749178,40.9176493 C11.4096301,41.3642656 10.9292171,42.2169636 10.4343988,43.4750064 C10.0310535,44.4942643 9.57008748,45.2496796 9.05294119,45.7434632 C8.53507463,46.2372469 7.94590239,46.4841387 7.28542447,46.4841387 C6.68616859,46.4841387 6.25545343,46.2814663 5.99327899,45.8761215 C5.7318248,45.4707767 5.68860924,44.9254037 5.86507281,44.2385286 C6.22736332,42.8249808 7.22996449,41.5986286 8.87359658,40.5587349 C10.5172287,39.5195783 12.3236394,39 14.2957098,39 C16.3470088,39 17.8934058,39.6338118 18.934901,40.9021725 C19.9756759,42.1705332 20.2536961,43.7506409 19.7689615,45.6424955 C19.5449608,46.5158293 19.2122009,47.3080941 18.7714021,48.0200269 C18.3284425,48.7326967 17.732788,49.4416816 16.9822776,50.1484555 C16.0315351,51.043162 13.9319788,52.3004678 10.6814478,53.922584 C9.66660225,54.4318444 8.89016255,54.8268713 8.35068821,55.1076647 C7.62754771,55.471738 6.89504384,55.9286721 6.15461711,56.479941 C5.41347012,57.0312099 4.72130078,57.6333312 4.07522804,58.2885158 L10.3090737,58.2885158 C11.5169488,58.2885158 12.5606048,58.0910023 13.4393213,57.6959754 C14.3180379,57.3009485 15.1549794,56.6619777 15.9508661,55.7783261 L16.480977,56.0274289 L13.4868584,62 L0,62 Z" id="Fill-89" fill="#FEFEFE"></path>
                <path d="M29.9405242,60.6949163 C30.9553013,60.6949163 31.7865999,60.1728828 32.4315973,59.1273115 C33.0765947,58.0824923 33.8112142,55.8882969 34.6340446,52.5462295 L35.1400217,50.4926973 C36.3650933,45.5168307 36.9338766,42.4079483 36.8456658,41.1668025 C36.7588664,39.9256566 36.1823206,39.3043315 35.1167341,39.3043315 C34.0617329,39.3043315 33.1895045,39.9151257 32.5021659,41.1352097 C31.8127103,42.3552937 30.9291909,45.1565223 29.8509021,49.5381433 C28.6124224,54.5674168 28.0436391,57.6845734 28.145258,58.888861 C28.2475825,60.0931486 28.8452989,60.6949163 29.9405242,60.6949163 M29.5897981,62 C27.1707051,62 25.5243387,60.9762427 24.6492875,58.9279759 C23.7756477,56.8812136 23.7834103,54.0476399 24.6739865,50.4295117 C25.609021,46.6316053 27.0641464,43.6099793 29.0407741,41.366138 C31.0159903,39.1215445 33.1895045,38 35.5584938,38 C37.8279813,38 39.4101302,39.0320316 40.3056463,41.0953426 C41.2011623,43.1594058 41.2300955,45.8884222 40.3945628,49.2838964 C39.4207155,53.2412712 37.9705299,56.3501536 36.0454174,58.6105435 C34.1210105,60.8701812 31.968667,62 29.5897981,62" id="Fill-91" fill="#FEFEFE"></path>
                <path d="M43,62 L43.0237686,61.9064022 L43.4083871,61.2357408 C44.1257655,60.060978 45.0599421,58.8655793 46.2109167,57.649545 C47.3604508,56.4327736 49.0400959,54.9049923 51.2491316,53.064727 L51.5991777,52.7684568 C55.3949451,49.5772879 57.5924567,46.8120995 58.1924328,44.4728916 C58.5230319,43.1838952 58.5446397,42.1572674 58.2586967,41.3930082 C57.9713132,40.628749 57.426797,40.246988 56.624428,40.246988 C55.9236155,40.246988 55.3402054,40.4710331 54.8749178,40.9176493 C54.4096301,41.3642656 53.9292171,42.2169636 53.4343988,43.4750064 C53.0310535,44.4942643 52.5700875,45.2496796 52.0529412,45.7434632 C51.5350746,46.2372469 50.9459024,46.4841387 50.2854245,46.4841387 C49.6861686,46.4841387 49.2554534,46.2814663 48.993279,45.8761215 C48.7318248,45.4707767 48.6886092,44.9254037 48.8650728,44.2385286 C49.2273633,42.8249808 50.2299645,41.5986286 51.8735966,40.5587349 C53.5172287,39.5195783 55.3236394,39 57.2957098,39 C59.3470088,39 60.8934058,39.6338118 61.934901,40.9021725 C62.9756759,42.1705332 63.2536961,43.7506409 62.7689615,45.6424955 C62.5449608,46.5158293 62.2122009,47.3080941 61.7714021,48.0200269 C61.3284425,48.7326967 60.732788,49.4416816 59.9822776,50.1484555 C59.0315351,51.043162 56.9319788,52.3004678 53.6814478,53.922584 C52.6666022,54.4318444 51.8901625,54.8268713 51.3506882,55.1076647 C50.6275477,55.471738 49.8950438,55.9286721 49.1546171,56.479941 C48.4134701,57.0312099 47.7213008,57.6333312 47.075228,58.2885158 L53.3090737,58.2885158 C54.5169488,58.2885158 55.5606048,58.0910023 56.4393213,57.6959754 C57.3180379,57.3009485 58.1549794,56.6619777 58.9508661,55.7783261 L59.480977,56.0274289 L56.4868584,62 L43,62 Z" id="Fill-93" fill="#FEFEFE"></path>
                <path d="M74.3055681,46.7928389 C76.2038453,46.669346 77.7214653,46.1308001 78.8569971,45.177932 C79.9932444,44.2243332 80.8060763,42.7943003 81.2962081,40.8885641 C81.750564,39.1187431 81.8500214,37.7756668 81.5945804,36.859335 C81.3391394,35.9430033 80.7445415,35.4848374 79.8115021,35.4848374 C79.0237135,35.4848374 78.3518393,35.7391304 77.7980261,36.246255 C77.2427818,36.7541103 76.6896841,37.633175 76.1387329,38.8827183 C75.596368,40.096456 75.0783308,40.9192547 74.5860524,41.3525758 C74.0923429,41.785897 73.4877277,42.0021922 72.7729222,42.0021922 C72.0824444,42.0021922 71.5765711,41.7544757 71.2545867,41.2597735 C70.9333177,40.7643405 70.8682053,40.1454147 71.0592494,39.402996 C71.4341824,37.9422726 72.5203433,36.6766533 74.3170165,35.6054074 C76.1129741,34.5356229 78.120726,34 80.3388411,34 C82.690043,34 84.4731213,34.6189258 85.6880759,35.8567775 C86.9037461,37.0946292 87.2743859,38.6357326 86.8007111,40.4800877 C86.4193384,41.9656558 85.6573085,43.2531969 84.5174836,44.3419803 C83.3769432,45.4314943 81.9265821,46.2608696 80.1692626,46.830106 C81.9845393,47.2634271 83.2674684,48.1081476 84.0173344,49.3649982 C84.7679159,50.621118 84.9081581,52.1592985 84.4409229,53.9788089 C83.8270059,56.3682864 82.4753867,58.3017903 80.3860654,59.7807819 C78.2974597,61.2605042 75.8589642,62 73.0705789,62 C70.6227816,62 68.7559874,61.4921447 67.4709117,60.4778955 C66.1865515,59.4621849 65.7429285,58.1812203 66.1414737,56.6335404 C66.3225005,55.9283887 66.7124595,55.3401535 67.3127816,54.8702959 C67.9116726,54.3997077 68.5692364,54.1644136 69.2847574,54.1644136 C70.0489338,54.1644136 70.6134799,54.3931312 70.9812577,54.851297 C71.3476044,55.3094629 71.5930281,56.2192181 71.7153822,57.5812934 C71.8026757,58.6576544 72.0073147,59.4161491 72.3314457,59.855316 C72.6541457,60.2952137 73.1492862,60.5144319 73.8154363,60.5144319 C74.7742344,60.5144319 75.6228423,60.0533431 76.362691,59.1311655 C77.1018241,58.2089879 77.6985686,56.8695652 78.1500624,55.1114359 C78.7417982,52.8089149 78.7060222,51.1070515 78.0441653,50.0051151 C77.3815928,48.9039094 76.0628877,48.3529412 74.0866187,48.3529412 L73.9048764,48.3529412 L74.3055681,46.7928389 Z" id="Fill-95" fill="#FEFEFE"></path>
            </g>
        </g>
    </g>
</svg>